<svg xmlns="http://www.w3.org/2000/svg" viewBox="0 0 496 496" width="512" height="512"><style>.a{fill:#eee;}</style><path d="M252.7 453.3c-11.7 0-21.3 9.6-21.3 21.3S241 496 252.7 496c11.7 0 21.3-9.6 21.3-21.3S264.4 453.3 252.7 453.3z" class="a"/><path d="M246 0c-80 0-142.7 56.1-142.8 127.7 0 5.3 3.8 10.1 9.2 10.9 6.6 0.9 12.2-4.2 12.2-10.6 0-59.8 53.3-106.7 121.5-106.7S371.5 71.4 371.5 130.6c0 62.3-51.2 109.2-119.1 109.2 -5.9 0-10.6 4.8-10.6 10.7v122.6c0 5.3 3.8 10.1 9.1 10.9 6.6 1 12.3-4.2 12.3-10.6v-112.6c73.6-4.9 129.7-60.4 129.7-130.2C392.9 58.6 327 0 246 0z" class="a"/></svg>