<svg xmlns="http://www.w3.org/2000/svg" viewBox="0 0 458.8 458.8" width="512" height="512"><style>.a{fill:#eee;}</style><path d="M448.2 10.6c-11.9-11.9-30.2-13.8-54.3-5.5 -10.6 3.6-22.6 9.2-36.1 16.8 -8.1 4.6-16.8 9.8-25.8 15.8 -2.4 1.6-4.8 3.2-7.3 4.9 13.8 7 26.7 15.5 38.6 25.5 2.8-1.7 5.4-3.4 8-4.9 22.8-13.6 37.1-18.8 44.6-20.3 -2 10.1-10.7 32.8-37.9 72 -2.2 3.1-4.4 6.3-6.7 9.5 -5.1-6.9-10.8-13.6-17.1-19.8 -68.9-68.9-180.7-68.9-249.6 0s-68.9 180.7 0 249.6c6.3 6.3 12.9 12 19.8 17.1 -3.2 2.3-6.4 4.5-9.5 6.7 -39.2 27.1-61.9 35.9-72 37.9 1.2-6.1 4.9-17 13.8-33.4 3.1-5.7 6.8-12.1 11.3-19.2 -9.9-11.9-18.4-24.8-25.5-38.6 -1.7 2.4-3.3 4.9-4.9 7.3 -8.3 12.6-15.2 24.3-20.7 35 -5.1 9.8-9 18.8-11.8 26.9 -8.2 24.1-6.4 42.4 5.5 54.3s30.2 13.8 54.3 5.5c17-5.8 37.8-16.8 61.9-32.6 47.6-31.3 104.4-79 159.8-134.4s103.2-112.2 134.4-159.8c15.8-24.1 26.8-44.9 32.6-61.9C461.9 40.8 460.1 22.6 448.2 10.6zM103.9 246.2c-9.3 0-16.8-7.5-16.8-16.8 0-38.2 14.9-74.2 41.9-101.2 6.6-6.6 17.2-6.6 23.8 0 6.6 6.6 6.6 17.2 0 23.8 -20.7 20.7-32.1 48.2-32.1 77.4C120.8 238.7 113.2 246.2 103.9 246.2z" class="a"/><path d="M310.2 310.2c-35 35-70.6 67-104.3 94.1 52.6 7 107.9-9.7 148.3-50.1 40.5-40.5 57.2-95.7 50.1-148.3C377.2 239.6 345.2 275.2 310.2 310.2z" class="a"/></svg>