<svg xmlns="http://www.w3.org/2000/svg" viewBox="0 0 56 56" width="512" height="512"><path d="M40 0c-8.8 0-16 7.2-16 16 0 3.3 1 6.3 2.7 8.9L0.3 51.3c-0.4 0.4-0.4 1 0 1.4C0.5 52.9 0.7 53 1 53s0.5-0.1 0.7-0.3L6 48.4l7.3 7.3C13.5 55.9 13.7 56 14 56s0.5-0.1 0.7-0.3c0.4-0.4 0.4-1 0-1.4L7.4 47 11 43.4l5.3 5.3C16.5 48.9 16.7 49 17 49s0.5-0.1 0.7-0.3c0.4-0.4 0.4-1 0-1.4L12.4 42 16 38.4l7.3 7.3C23.5 45.9 23.7 46 24 46s0.5-0.1 0.7-0.3c0.4-0.4 0.4-1 0-1.4L17.4 37l10.5-10.5C30.9 29.9 35.2 32 40 32c8.8 0 16-7.2 16-16S48.8 0 40 0zM40 30c-7.7 0-14-6.3-14-14S32.3 2 40 2s14 6.3 14 14S47.7 30 40 30z" fill="#eee"/></svg>