<svg xmlns="http://www.w3.org/2000/svg" viewBox="0 0 53 53" width="512" height="512"><style>.a{fill:#eee;}</style><path d="M52.9 0.6c-0.1-0.2-0.3-0.4-0.5-0.5C52.3 0 52.1 0 52 0H40c-0.6 0-1 0.4-1 1s0.4 1 1 1h9.6L33.3 18.3c-0.4 0.4-0.4 1 0 1.4C33.5 19.9 33.7 20 34 20s0.5-0.1 0.7-0.3L51 3.4V13c0 0.6 0.4 1 1 1s1-0.4 1-1V1C53 0.9 53 0.7 52.9 0.6z" class="a"/><path d="M18.3 33.3L2 49.6V40c0-0.6-0.4-1-1-1s-1 0.4-1 1v12c0 0.1 0 0.3 0.1 0.4 0.1 0.2 0.3 0.4 0.5 0.5C0.7 53 0.9 53 1 53h12c0.6 0 1-0.4 1-1s-0.4-1-1-1H3.4l16.3-16.3c0.4-0.4 0.4-1 0-1.4S18.7 32.9 18.3 33.3z" class="a"/><path d="M1 14c0.6 0 1-0.4 1-1V3.4l16.3 16.3c0.2 0.2 0.5 0.3 0.7 0.3s0.5-0.1 0.7-0.3c0.4-0.4 0.4-1 0-1.4L3.4 2H13c0.6 0 1-0.4 1-1s-0.4-1-1-1H1C0.9 0 0.7 0 0.6 0.1 0.4 0.2 0.2 0.4 0.1 0.6 0 0.7 0 0.9 0 1v12C0 13.6 0.4 14 1 14z" class="a"/><path d="M52 39c-0.6 0-1 0.4-1 1v9.6L34.7 33.3c-0.4-0.4-1-0.4-1.4 0s-0.4 1 0 1.4L49.6 51H40c-0.6 0-1 0.4-1 1s0.4 1 1 1h12c0.1 0 0.3 0 0.4-0.1 0.2-0.1 0.4-0.3 0.5-0.5C53 52.3 53 52.1 53 52V40C53 39.4 52.6 39 52 39z" class="a"/></svg>