<svg xmlns="http://www.w3.org/2000/svg" viewBox="0 0 59 59" width="512" height="512"><style>.a{fill:#eee;}</style><path d="M11.3 41.4c0.2 0.1 0.4 0.2 0.6 0.2 0.3 0 0.6-0.1 0.8-0.4 0.3-0.4 0.3-1.1-0.2-1.4 -0.8-0.6-1.6-1.3-2.3-2.1l-7.4-7.4 7.6-7.6c7.3-7.3 18-9.8 27.8-6.5 0.5 0.2 1.1-0.1 1.3-0.6 0.2-0.5-0.1-1.1-0.6-1.3 -10.6-3.5-22-0.9-29.9 7L0 30.4l8.8 8.8C9.6 40 10.4 40.7 11.3 41.4z" class="a"/><path d="M50.2 21.3c-1.3-1.3-2.8-2.6-4.4-3.6 -0.5-0.3-1.1-0.2-1.4 0.3 -0.3 0.5-0.2 1.1 0.3 1.4 1.5 1 2.8 2.1 4.1 3.4l7.4 7.4 -7.6 7.6c-7.4 7.4-18.5 9.9-28.4 6.4 -0.5-0.2-1.1 0.1-1.3 0.6 -0.2 0.5 0.1 1.1 0.6 1.3 3.2 1.1 6.5 1.7 9.8 1.7 7.6 0 15.1-3 20.7-8.5l9-9L50.2 21.3z" class="a"/><path d="M30.5 41.8c-2.2 0-4.3-0.6-6.1-1.7 -0.5-0.3-1.1-0.1-1.4 0.3 -0.3 0.5-0.1 1.1 0.3 1.4 2.1 1.3 4.6 2 7.1 2 7.4 0 13.5-6.1 13.5-13.5 0-2.7-0.8-5.3-2.3-7.5 -0.3-0.5-0.9-0.6-1.4-0.3 -0.5 0.3-0.6 0.9-0.3 1.4 1.3 1.9 1.9 4.1 1.9 6.4C42 36.6 36.9 41.8 30.5 41.8z" class="a"/><path d="M30.5 18.8c2.1 0 4.1 0.6 5.9 1.6 0.5 0.3 1.1 0.1 1.4-0.4 0.3-0.5 0.1-1.1-0.4-1.4 -2.1-1.2-4.5-1.9-6.9-1.9 -7.4 0-13.5 6.1-13.5 13.5 0 2.1 0.5 4.1 1.4 5.9 0.2 0.4 0.5 0.6 0.9 0.6 0.1 0 0.3 0 0.4-0.1 0.5-0.2 0.7-0.8 0.5-1.3 -0.8-1.6-1.2-3.3-1.2-5.1C19 23.9 24.2 18.8 30.5 18.8z" class="a"/><path d="M54.6 5.6c-0.4-0.4-1-0.4-1.4 0l-46.5 46.5c-0.4 0.4-0.4 1 0 1.4 0.2 0.2 0.5 0.3 0.7 0.3s0.5-0.1 0.7-0.3l46.5-46.5C55 6.6 55 6 54.6 5.6z" class="a"/></svg>