<svg xmlns="http://www.w3.org/2000/svg" viewBox="0 0 59.2 59.2" width="512" height="512"><style>.a{fill:#eee;}</style><path d="M51.1 21.6c-11.9-11.9-31.2-11.9-43.1 0L0 29.5l8.1 8.1c5.9 5.9 13.8 8.9 21.6 8.9s15.6-3 21.6-8.9l7.9-7.9L51.1 21.6zM49.8 36.2c-11.1 11.1-29.2 11.1-40.3 0l-6.7-6.7 6.5-6.5c11.1-11.1 29.2-11.1 40.3 0l6.7 6.7L49.8 36.2z" class="a"/><path d="M28.6 21.6c-3.9 0-7 3.1-7 7 0 0.6 0.4 1 1 1s1-0.4 1-1c0-2.8 2.2-5 5-5 0.6 0 1-0.4 1-1S29.1 21.6 28.6 21.6z" class="a"/><path d="M29.6 16.6c-7.2 0-13 5.8-13 13s5.8 13 13 13 13-5.8 13-13S36.7 16.6 29.6 16.6zM29.6 40.6c-6.1 0-11-4.9-11-11s4.9-11 11-11 11 4.9 11 11S35.6 40.6 29.6 40.6z" class="a"/></svg>