<svg xmlns="http://www.w3.org/2000/svg" viewBox="0 0 53 53" width="512" height="512"><style>.a{fill:#eee;}</style><path d="M36.4 35H46c0.6 0 1-0.4 1-1s-0.4-1-1-1H34c-0.1 0-0.3 0-0.4 0.1 -0.2 0.1-0.4 0.3-0.5 0.5C33 33.7 33 33.9 33 34v12c0 0.6 0.4 1 1 1s1-0.4 1-1v-9.6l16.3 16.3C51.5 52.9 51.7 53 52 53s0.5-0.1 0.7-0.3c0.4-0.4 0.4-1 0-1.4L36.4 35z" class="a"/><path d="M16.6 18H7c-0.6 0-1 0.4-1 1s0.4 1 1 1h12c0.1 0 0.3 0 0.4-0.1 0.2-0.1 0.4-0.3 0.5-0.5 0.1-0.1 0.1-0.3 0.1-0.4v-12c0-0.6-0.4-1-1-1s-1 0.4-1 1v9.6L1.7 0.3c-0.4-0.4-1-0.4-1.4 0s-0.4 1 0 1.4L16.6 18z" class="a"/><path d="M19.4 33.1C19.3 33 19.1 33 19 33H7c-0.6 0-1 0.4-1 1s0.4 1 1 1h9.6L0.3 51.3c-0.4 0.4-0.4 1 0 1.4C0.5 52.9 0.7 53 1 53s0.5-0.1 0.7-0.3L18 36.4V46c0 0.6 0.4 1 1 1s1-0.4 1-1V34c0-0.1 0-0.3-0.1-0.4C19.8 33.4 19.6 33.2 19.4 33.1z" class="a"/><path d="M33.6 19.9C33.7 20 33.9 20 34 20h12c0.6 0 1-0.4 1-1s-0.4-1-1-1h-9.6L52.7 1.7c0.4-0.4 0.4-1 0-1.4s-1-0.4-1.4 0L35 16.6V7c0-0.6-0.4-1-1-1s-1 0.4-1 1v12c0 0.1 0 0.3 0.1 0.4C33.2 19.6 33.4 19.8 33.6 19.9z" class="a"/></svg>